<svg xmlns="http://www.w3.org/2000/svg" width="82" height="32" viewBox="0 0 82 32">
    <path fill="#26282B" fill-rule="evenodd" d="M47.218 8.612c-2.98-2.819-7.844-3.144-11.4-.85-3.437 2.217-4.97 6.36-4.128 9.82l15.528-8.97m5.512-3.187c1.858-1.071 3.624-2.11 5.41-3.116 5.438-3.062 10.917-3.121 16.28.079a15.413 15.413 0 0 1 7.31 15.922c-1.208 6.832-6.204 11.81-12.794 12.944-4.13.711-7.947-.118-11.445-2.423a8.467 8.467 0 0 1-.363-.256c-.05-.037-.093-.083-.09-.08 1.024-1.79 2.036-3.563 3.078-5.387.098.073.274.208.452.34a9.489 9.489 0 0 0 12.419-.934c3.381-3.402 3.727-8.67.823-12.536-2.8-3.728-8.053-4.89-12.137-2.556-8.892 5.082-17.747 10.23-26.616 15.353-.088.051-.168.118-.304.215 1.416 1.214 2.991 1.99 4.792 2.218 5.245.66 9.58-2.391 10.787-7.544.04-.17.133-.387.27-.467 1.946-1.148 3.905-2.276 5.92-3.443.049.235.098.393.113.555.592 6.702-3.058 13.004-9.131 15.773-6.123 2.791-13.195 1.414-17.908-3.506-.305-.318-.517-.374-.904-.144a310.558 310.558 0 0 1-5.107 2.962C13.887 34.912 1.846 29.062.17 18.02-1.087 9.725 4.72 1.707 13.008.3c4.252-.723 8.152.158 11.708 2.59.087.06.17.127.252.194.014.012.019.036-.02-.045l-3.087 5.4c-.114-.083-.293-.22-.479-.346-3.307-2.264-6.793-2.58-10.291-.615-3.496 1.962-5.15 5.112-4.848 9.103.516 6.813 7.884 10.827 13.91 7.633 1.887-1 3.706-2.129 5.57-3.174.393-.22.294-.46.208-.786-1.616-6.118-.245-11.48 4.294-15.888 6.154-5.978 16.101-5.703 22.055.505.16.167.293.36.45.553"/>
</svg>
