<svg xmlns="http://www.w3.org/2000/svg" width="184" height="103" viewBox="0 0 184 103">
    <g fill="#FFF" fill-rule="evenodd">
        <path d="M105.146 19.254c-6.636-6.302-17.468-7.029-25.385-1.9-7.653 4.957-11.068 14.22-9.194 21.955l34.58-20.055m12.274-7.124c4.136-2.395 8.07-4.719 12.046-6.967 12.11-6.847 24.311-6.98 36.253.175 12.656 7.584 18.687 21.934 16.28 35.6-2.691 15.275-13.817 26.403-28.491 28.94-9.199 1.59-17.696-.263-25.486-5.418a18.854 18.854 0 0 1-.808-.572c-.112-.083-.208-.186-.2-.178l6.854-12.046c.216.164.609.466 1.006.762 8.49 6.321 20.203 5.436 27.654-2.09 7.53-7.605 8.3-19.382 1.832-28.027-6.236-8.335-17.931-10.934-27.027-5.714-19.801 11.362-39.518 22.873-59.268 34.326-.197.114-.374.263-.678.48 3.155 2.715 6.662 4.452 10.672 4.96 11.68 1.477 21.332-5.347 24.022-16.868.089-.38.295-.865.598-1.044 4.336-2.567 8.698-5.09 13.185-7.699.109.526.219.88.25 1.242 1.319 14.984-6.809 29.075-20.333 35.265-13.634 6.241-29.381 3.163-39.876-7.838-.68-.712-1.151-.837-2.013-.322a690.882 690.882 0 0 1-11.373 6.622C30.924 78.057 4.11 64.976.382 40.29-2.42 21.743 10.51 3.816 28.967.67c9.468-1.614 18.154.356 26.072 5.794.194.134.376.283.56.432.032.026.042.082-.046-.101L48.68 18.87c-.254-.185-.652-.49-1.065-.774-7.366-5.06-15.128-5.766-22.918-1.375-7.784 4.388-11.468 11.43-10.795 20.353 1.15 15.232 17.557 24.208 30.974 17.066 4.202-2.236 8.253-4.76 12.403-7.097.876-.493.656-1.029.464-1.757-3.597-13.68-.544-25.667 9.562-35.523 13.704-13.366 35.855-12.75 49.113 1.13.356.373.653.803 1.003 1.237M87.528 95.433c1.21 0 2.243.075 3.259-.021 1.076-.103 1.706-.808 1.65-1.891-.053-1.056-.67-1.725-1.788-1.762-1.013-.034-2.029-.007-3.121-.007v3.68zm.044 1.104v3.849c1.293 0 2.467.07 3.63-.02 1.088-.085 1.69-.795 1.691-1.886.001-1.072-.543-1.836-1.648-1.922-1.203-.094-2.419-.021-3.673-.021zm5.3-1.064c.434 1.335 1.013 2.374 1.055 3.434.051 1.298-1.162 2.39-2.449 2.452-1.632.08-3.27.02-5.021.02V90.792c1.648 0 3.253-.174 4.804.04 2.327.322 2.908 2.687 1.611 4.64zM35.25 95.978c-.031-2.395-1.95-4.291-4.32-4.269-2.357.022-4.26 1.97-4.253 4.351.008 2.467 1.96 4.383 4.4 4.321 2.4-.061 4.205-1.965 4.173-4.403m1.04.06c-.001 2.991-2.304 5.336-5.264 5.362a5.342 5.342 0 0 1-5.409-5.387c.024-2.948 2.398-5.286 5.366-5.287 2.978 0 5.309 2.333 5.307 5.311M163.764 90.726c.415.352.916.648 1.231 1.064 1.803 2.38 3.563 4.787 5.718 7.14v-2.213c.001-1.666-.023-3.332.03-4.997.007-.278.343-.548.527-.821.192.263.547.524.55.79.038 2.96.03 5.923.002 8.884-.002.27-.237.54-.364.81-.359-.189-.84-.298-1.057-.58-1.62-2.113-3.187-4.26-4.774-6.395-.277-.372-.571-.732-1.157-1.06 0 2.136.038 4.274-.025 6.409-.016.552-.346 1.095-.53 1.643-.2-.532-.563-1.06-.573-1.595-.057-2.908-.027-5.817-.027-8.726l.45-.353M132.373 96.028c1.27 0 2.43.131 3.546-.037 1.156-.173 1.69-1.07 1.611-2.248-.08-1.19-.742-1.9-1.927-1.974-1.046-.065-2.1-.013-3.23-.013v4.272zm-.09 1.315c0 1.072.028 2.18-.022 3.283-.01.237-.297.461-.458.691-.171-.222-.49-.443-.493-.666-.032-3.245-.022-6.491-.022-9.837 1.739 0 3.395-.252 4.917.096.891.204 1.84 1.232 2.27 2.127.547 1.137.094 2.376-.9 3.268-.303.271-.663.478-1.086.777l2.269 3.976-.173.342c-.39-.197-.877-.308-1.148-.613a5.124 5.124 0 0 1-.915-1.55c-.735-1.92-2.045-2.605-4.239-1.894zM147.83 92.052l-2.207 5.542h4.433l-2.226-5.542m4.292 9.348c-.35-.414-.896-.785-1.013-1.252-.312-1.245-1.05-1.647-2.323-1.466a5.775 5.775 0 0 1-1.618 0c-1.49-.22-2.397.231-2.723 1.717-.08.367-.682.633-1.044.945l-.374-.319c1.325-3.238 2.637-6.482 3.995-9.708.114-.27.533-.596.804-.59.291.005.724.314.838.587 1.352 3.23 2.654 6.478 3.97 9.72l-.512.366M58.528 98.532c-.955 2.317-3.441 3.265-6.004 2.716-2.684-.575-4.442-2.541-4.491-5.026-.052-2.594 1.628-4.671 4.292-5.306 2.584-.616 5.15.299 6.38 2.282-.56.825-.928.351-1.421-.114-1.952-1.836-4.995-1.818-6.866.001-1.822 1.77-1.647 4.698.376 6.282 1.86 1.457 4.66 1.317 6.487-.275.319-.277.826-.377 1.247-.56M17.113 95.517c1.33 0 2.578-.038 3.82.025.333.017.648.342.97.526-.337.158-.667.437-1.012.453-1.206.056-2.417.021-3.746.021v3.859c1.421 0 2.86-.033 4.297.025.331.013.649.337.973.518-.306.15-.61.423-.92.43-1.787.042-3.577.02-5.484.02V90.73c1.895 0 3.812-.015 5.727.023.181.003.355.332.533.51-.253.155-.5.439-.757.446-1.438.044-2.88.021-4.401.021v3.788zM106.815 94.745c0 .965-.033 1.93.008 2.891.072 1.734 1.17 2.692 3.052 2.715 1.881.023 3.027-.89 3.1-2.65.084-1.971-.001-3.947.06-5.92.01-.355.37-.7.57-1.05.194.356.545.707.555 1.067.055 1.926.069 3.855.011 5.782-.071 2.38-1.75 3.838-4.29 3.82-2.529-.019-4.087-1.377-4.166-3.744a106.18 106.18 0 0 1-.004-6.056c.007-.296.4-.583.613-.874.162.284.447.563.463.854.055 1.053.021 2.11.021 3.165h.007zM11.697 99.849c-1.578 2.31-4.03 3.146-6.71 2.29-2.302-.737-3.92-3.025-3.92-5.543.001-2.598 1.625-4.836 4.052-5.583 2.573-.792 5.046.076 6.622 2.37-.441.688-.753.723-1.371.025-1.67-1.883-4.328-2.114-6.267-.67-1.865 1.387-2.447 4.035-1.345 6.117 1.11 2.098 3.577 3.056 5.817 2.146.7-.284 1.252-.918 1.913-1.322.321-.197.74-.233 1.113-.343l.096.513M121.519 95.596l5.498 5.417-.233.387c-.518-.22-1.125-.342-1.537-.678-1.537-1.255-3.01-2.58-4.576-3.938 0 1.091.043 2.266-.024 3.435-.021.374-.33.733-.507 1.098-.196-.344-.554-.686-.56-1.033a282.768 282.768 0 0 1-.007-8.438c.005-.335.302-.668.463-1.001.213.336.585.662.61 1.01.08 1.096.03 2.2.03 3.466 2.336-1.278 3.36-3.915 5.94-4.595l.266.287-5.363 4.583M73.664 94.866c0-1.011-.048-2.027.025-3.034.028-.378.339-.738.52-1.106.193.353.542.702.553 1.06.057 1.838.007 3.68.035 5.519.03 2.044 1.122 3.074 3.165 3.047 1.966-.026 2.984-1.023 3.019-3.034.033-1.886-.019-3.773.035-5.658.009-.315.36-.622.554-.933.198.305.56.607.567.916.049 2.023.083 4.05 0 6.071-.093 2.308-1.781 3.703-4.291 3.686-2.515-.018-4.076-1.418-4.168-3.774-.036-.918-.006-1.84-.006-2.76h-.008zM178.292 100.402c1.541 0 2.948-.034 4.35.025.322.014.63.342.945.526-.302.148-.602.415-.908.422-1.79.04-3.581.02-5.496.02V90.73c1.913 0 3.749-.018 5.584.021.258.006.509.29.763.446-.272.183-.537.516-.816.526-1.447.054-2.896.025-4.439.025v3.779c1.319 0 2.568-.038 3.814.025.333.017.65.34.976.523-.342.159-.677.438-1.025.455-1.21.056-2.423.021-3.748.021v3.85zM64.155 100.4c1.547 0 2.905-.029 4.26.02.327.012.643.28.964.429-.283.182-.561.513-.85.52-1.765.05-3.533.025-5.546.025v-3.43c0-2.015-.032-4.03.028-6.042.013-.404.381-.797.586-1.196.185.42.522.835.532 1.257.053 2.294.026 4.59.026 6.885v1.532zM158.198 96.154c-.001 1.454.037 2.91-.033 4.363-.015.301-.434.589-.667.883-.194-.284-.554-.566-.559-.851a297.49 297.49 0 0 1-.006-8.868c.004-.32.396-.637.608-.955.22.308.614.61.628.924.066 1.5.03 3.002.029 4.504"/>
    </g>
</svg>
