<svg xmlns="http://www.w3.org/2000/svg" width="120" height="120" viewBox="0 0 120 120">
    <g fill="none" fill-rule="evenodd">
        <path fill="#C0A266" d="M96.22 82.394c-10.531 0-19.16-8.309-19.676-18.716h39.348c-.515 10.407-9.141 18.716-19.673 18.716zM22.026 82.394c-10.531 0-19.16-8.309-19.675-18.716h39.347c-.516 10.407-9.141 18.716-19.672 18.716z"/>
        <path fill="#26282B" fill-rule="nonzero" d="M60.36 104.268h46.497v8.148h11.547v2.668H-.35v-2.668h11.546v-8.147h46.496V18.541H24.057l19.951 43.024.032 1.13c0 12.142-9.875 22.019-22.014 22.019-12.14 0-22.018-9.878-22.018-22.018v-.984l19.875-43.171h-7.704v-2.668h45.513v-1.595c-3.475-.64-6.055-3.662-6.055-7.24 0-4.074 3.314-7.388 7.389-7.388s7.39 3.314 7.39 7.389c0 3.578-2.58 6.6-6.057 7.239v1.595h45.514v2.668H98.25l19.954 43.024.032 1.13c0 12.141-9.877 22.019-22.014 22.019-12.142 0-22.02-9.878-22.02-22.018v-.984L94.08 18.541h-33.72v85.727zm35.86-22.224c10.183 0 18.61-7.931 19.301-18.016H76.915c.691 10.084 9.12 18.016 19.304 18.016zM77.031 61.362h38.265L96.163 20.406 77.032 61.362zM54.305 7.039a4.727 4.727 0 0 0 4.72 4.722 4.728 4.728 0 0 0 4.723-4.722 4.727 4.727 0 0 0-4.722-4.721 4.726 4.726 0 0 0-4.721 4.72zM22.026 82.044c10.183 0 18.61-7.932 19.3-18.016H2.723c.69 10.084 9.12 18.016 19.304 18.016zm19.075-20.682L21.967 20.406 2.837 61.362h38.264zm-27.238 45.575v5.48h90.328v-5.48H13.863z"/>
    </g>
</svg>
