<svg xmlns="http://www.w3.org/2000/svg" width="120" height="120" viewBox="0 0 120 120">
    <g fill="none" fill-rule="evenodd">
        <path fill="#C0A266" d="M60 32.495a5.408 5.408 0 0 1 5.429 5.429A5.408 5.408 0 0 1 60 43.352a5.408 5.408 0 0 1-5.429-5.428A5.408 5.408 0 0 1 60 32.495zM60 52.852A10.804 10.804 0 0 1 70.857 63.71v4.03C67.621 69.48 63.942 70.494 60 70.494c-3.94 0-7.616-.98-10.857-2.714v-4.072A10.804 10.804 0 0 1 60 52.852z"/>
        <path fill="#26282B" fill-rule="nonzero" d="M60 21.638c-14.225 0-25.786 11.56-25.786 25.786 0 5.92 2.023 11.378 5.386 15.734l-9.033 7.888c-2.933-2.837-6.89-4.622-11.281-4.622C10.307 66.424 3 73.73 3 82.709s7.307 16.286 16.286 16.286c8.978 0 16.285-7.308 16.285-16.286 0-3.614-1.222-6.922-3.223-9.627l8.991-7.888c4.7 4.934 11.32 8.015 18.661 8.015 7.353 0 13.92-3.197 18.618-8.143l9.034 8.016c-2 2.705-3.223 6.013-3.223 9.627 0 8.978 7.307 16.286 16.285 16.286 8.979 0 16.286-7.308 16.286-16.286 0-8.978-7.307-16.285-16.286-16.285-4.381 0-8.35 1.755-11.281 4.58l-9.924-8.78a1.357 1.357 0 0 0-1.951.128 23.43 23.43 0 0 1-3.987 3.732V63.71c0-7.495-6.076-13.571-13.571-13.571s-13.571 6.076-13.571 13.571v2.375c-5.748-4.193-9.5-10.989-9.5-18.66 0-12.759 10.313-23.072 23.071-23.072 12.758 0 23.071 10.313 23.071 23.072 0 2.721-.42 5.275-1.272 7.676a1.357 1.357 0 1 0 2.545.89c.96-2.706 1.442-5.56 1.442-8.566 0-14.225-11.561-25.786-25.786-25.786zm0 8.143c-4.481 0-8.143 3.661-8.143 8.143 0 4.48 3.662 8.142 8.143 8.142 4.481 0 8.143-3.661 8.143-8.142 0-4.482-3.662-8.143-8.143-8.143zm0 2.714a5.408 5.408 0 0 1 5.429 5.429A5.408 5.408 0 0 1 60 43.352a5.408 5.408 0 0 1-5.429-5.428A5.408 5.408 0 0 1 60 32.495zm0 20.357A10.804 10.804 0 0 1 70.857 63.71v4.03C67.621 69.48 63.942 70.494 60 70.494c-3.94 0-7.616-.98-10.857-2.714v-4.072A10.804 10.804 0 0 1 60 52.852zM19.286 69.138a13.55 13.55 0 0 1 13.571 13.571c0 4.18-1.875 7.904-4.835 10.39-.572-4.314-4.268-7.675-8.736-7.675-4.468 0-8.164 3.361-8.737 7.676a13.517 13.517 0 0 1-4.835-10.39 13.55 13.55 0 0 1 13.572-13.572zm81.428 0a13.55 13.55 0 0 1 13.572 13.571c0 4.18-1.875 7.904-4.835 10.39-.573-4.314-4.269-7.675-8.737-7.675s-8.164 3.361-8.736 7.676a13.517 13.517 0 0 1-4.835-10.39 13.55 13.55 0 0 1 13.571-13.572zm-81.428 2.714c-2.982 0-5.429 2.447-5.429 5.429s2.447 5.428 5.429 5.428 5.428-2.446 5.428-5.428c0-2.982-2.446-5.429-5.428-5.429zm81.428 0c-2.982 0-5.428 2.447-5.428 5.429s2.446 5.428 5.428 5.428c2.982 0 5.429-2.446 5.429-5.428 0-2.982-2.447-5.429-5.429-5.429zm-81.428 2.714c1.515 0 2.714 1.2 2.714 2.715s-1.2 2.714-2.714 2.714a2.694 2.694 0 0 1-2.715-2.714c0-1.515 1.2-2.715 2.715-2.715zm81.428 0c1.515 0 2.715 1.2 2.715 2.715s-1.2 2.714-2.715 2.714A2.694 2.694 0 0 1 98 77.281c0-1.515 1.2-2.715 2.714-2.715zM19.286 88.138c3.407 0 6.107 2.7 6.107 6.107v.594a13.56 13.56 0 0 1-6.107 1.442 13.56 13.56 0 0 1-6.107-1.442v-.594c0-3.407 2.7-6.107 6.107-6.107zm81.428 0c3.407 0 6.107 2.7 6.107 6.107v.594a13.56 13.56 0 0 1-6.107 1.442 13.56 13.56 0 0 1-6.107-1.442v-.594c0-3.407 2.7-6.107 6.107-6.107z"/>
    </g>
</svg>
