<svg xmlns="http://www.w3.org/2000/svg" width="120" height="120" viewBox="0 0 120 120">
    <g fill="none" fill-rule="evenodd">
        <path fill="#C0A266" d="M24 8.122L33.636 6 39 9.367l-1.34 17.861L29.694 30 24 27.228zM84 8.122L93.636 6 99 9.367l-1.34 17.861L89.694 30 84 27.228z"/>
        <path fill="#26282B" fill-rule="nonzero" d="M32.739 5h-3.955c-4.107 0-7.435 3.29-7.435 7.347v4.408h-4.967C8.992 16.755 3 22.676 3 29.98v71.795C3 109.08 8.992 115 16.382 115h88.236c7.39 0 13.382-5.92 13.382-13.225v-71.78c0-7.304-5.992-13.225-13.382-13.225H99.65v-4.408c0-4.058-3.328-7.347-7.435-7.347h-3.955c-4.106 0-7.435 3.29-7.435 7.347v4.408H40.174v-4.408A7.303 7.303 0 0 0 38 7.157 7.48 7.48 0 0 0 32.74 5zm-8.431 7.347c0-2.435 1.997-4.408 4.46-4.408h3.97c2.464 0 4.462 1.973 4.462 4.408v11.755c0 2.435-1.998 4.409-4.461 4.409h-3.955c-2.464 0-4.461-1.974-4.461-4.409l-.015-11.755zm90.703 89.428c0 5.681-4.66 10.286-10.408 10.286h-88.22c-5.749 0-10.41-4.605-10.41-10.286V49.26h109.053l-.015 52.516zM83.785 12.347c0-2.435 1.998-4.408 4.461-4.408h3.97c2.464 0 4.461 1.973 4.461 4.408v11.755c0 2.435-1.997 4.409-4.46 4.409H88.26c-2.463 0-4.46-1.974-4.46-4.409l-.016-11.755zm-2.973 7.347v4.408c0 4.058 3.328 7.347 7.434 7.347h3.97c4.107 0 7.435-3.289 7.435-7.347v-4.408h4.952c5.748 0 10.408 4.605 10.408 10.286v16.31H5.974V29.995c0-5.681 4.66-10.286 10.408-10.286h4.952v4.408c0 4.058 3.329 7.347 7.435 7.347h3.97c4.106 0 7.435-3.29 7.435-7.347v-4.408l40.638-.015z"/>
        <path fill="#26282B" fill-rule="nonzero" d="M22 61v13h16V61H22zm-1-3h18a2 2 0 0 1 2 2v15a2 2 0 0 1-2 2H21a2 2 0 0 1-2-2V60a2 2 0 0 1 2-2zM22 87v13h16V87H22zm-1-3h18a2 2 0 0 1 2 2v15a2 2 0 0 1-2 2H21a2 2 0 0 1-2-2V86a2 2 0 0 1 2-2zM53 61v13h16V61H53zm-1-3h18a2 2 0 0 1 2 2v15a2 2 0 0 1-2 2H52a2 2 0 0 1-2-2V60a2 2 0 0 1 2-2zM53 87v13h16V87H53zm-1-3h18a2 2 0 0 1 2 2v15a2 2 0 0 1-2 2H52a2 2 0 0 1-2-2V86a2 2 0 0 1 2-2zM84 61v13h16V61H84zm-1-3h18a2 2 0 0 1 2 2v15a2 2 0 0 1-2 2H83a2 2 0 0 1-2-2V60a2 2 0 0 1 2-2zM83 84h18a2 2 0 0 1 2 2v15a2 2 0 0 1-2 2H83a2 2 0 0 1-2-2V86a2 2 0 0 1 2-2z"/>
        <path fill="#C0A266" d="M84 87v13h16V87z"/>
    </g>
</svg>
