<svg xmlns="http://www.w3.org/2000/svg" width="120" height="120" viewBox="0 0 120 120">
    <g fill="none" fill-rule="evenodd">
        <path fill="#26282B" fill-rule="nonzero" d="M118.138 51.117a1.38 1.38 0 0 1-.036 1.362 1.39 1.39 0 0 1-1.19.672h-15.438l.03.73c.01.204.02.365.044.727.038.55.05.795.05 1.096 0 16.376-9.307 31.124-23.74 38.421l-.385.195v18.595c0 .766-.62 1.385-1.388 1.385H40.363c-.767 0-1.388-.62-1.388-1.385V94.102l-.377-.196c-14.183-7.381-23.284-22.002-23.284-38.202 0-.166.007-.307.03-.624.019-.272.026-.395.03-.556l.014-.5-.469-.175C6.445 50.694.7 42.611.7 33.465c0-12 9.78-21.765 21.801-21.765 5.585 0 10.845 2.132 14.872 5.896l.366.342.442-.236a42.9 42.9 0 0 1 20.275-5.076c11.156 0 21.656 4.296 29.643 11.863l.666.63 6.538-12.223a1.389 1.389 0 0 1 2.45.001l20.385 38.22zM3.475 33.465c0 7.535 4.463 14.272 11.245 17.322a18.86 18.86 0 0 0 4.178 1.328c1.205.232 2.405.351 3.603.351 10.492 0 19.026-8.523 19.026-19.001 0-4.196-1.39-8.192-3.908-11.488a19.143 19.143 0 0 0-3.065-3.196 18.953 18.953 0 0 0-12.053-4.312c-10.491 0-19.026 8.521-19.026 18.996zm38.276 78.066h32.947V78.629H41.75v32.902zm57.072-55.827c0-.351-.015-.633-.056-1.238a28.025 28.025 0 0 1-.04-.647l-.03-.668H76.085c-.487 0-.939-.255-1.19-.672a1.38 1.38 0 0 1-.034-1.363l12.307-23.01.245-.458-.366-.367c-7.534-7.556-17.73-11.886-28.591-11.886-6.317 0-12.448 1.493-18.054 4.308l-.737.37.484.666c2.684 3.699 4.153 8.106 4.153 12.726 0 12.003-9.78 21.77-21.801 21.77-1.144 0-2.317-.109-3.591-.322l-.816-.136c0 .54 0 .848-.005.927 0 14.353 7.641 27.406 19.829 34.64l1.057.627V77.244c0-.765.621-1.384 1.388-1.384h35.722c.767 0 1.388.62 1.388 1.384v13.99l1.049-.604c12.45-7.16 20.3-20.373 20.3-34.926z"/>
        <path fill="#C0A266" d="M102.526 49.903h11.791l-17.79-33.546-4.847 9.114-2.395 4.505-10.598 19.927z"/>
    </g>
</svg>
