<svg xmlns="http://www.w3.org/2000/svg" width="21" height="21" viewBox="0 0 21 21">
    <g fill="none" fill-rule="evenodd">
        <path stroke="#FFF" d="M-70-18h296v56H-70z"/>
        <path fill="#FFF" d="M4.664 7.057v13.29H.258V7.056h4.406zm.281-4.101c.016.656-.203 1.203-.656 1.64-.469.438-1.078.657-1.828.657h-.023c-.735 0-1.32-.22-1.758-.657C.227 4.16 0 3.612 0 2.956c0-.657.227-1.203.68-1.64C1.148.892 1.75.681 2.484.681c.75 0 1.344.211 1.782.633.453.438.68.984.68 1.64zm6.563 6.01a5.593 5.593 0 0 1 1.29-1.416c.311-.25.702-.446 1.17-.586.454-.141.962-.211 1.524-.211 1.531 0 2.758.507 3.68 1.523.937 1.016 1.406 2.5 1.406 4.453v7.617h-4.406v-7.101c0-.938-.18-1.672-.54-2.203-.374-.532-.944-.797-1.71-.797-.563 0-1.031.148-1.406.445a2.932 2.932 0 0 0-.844 1.149c-.11.265-.164.632-.164 1.101v7.406H7.102c.03-3.562.046-6.453.046-8.672 0-2.218-.007-3.539-.023-3.96l-.023-.657h4.406v1.909z"/>
    </g>
</svg>
