<svg xmlns="http://www.w3.org/2000/svg" width="16" height="16" viewBox="0 0 16 16">
    <path fill="#26282B" fill-rule="evenodd" d="M2.156 12.531l.625 1.875h2.5l.625-.625-.625-.625.625-.625h1.25l.625-.625-.625-.625.625-.625h1.25l.332-.332a3.556 3.556 0 0 0 1.802.005 3.417 3.417 0 0 0 1.616-.923 3.44 3.44 0 0 0 .777-1.167 3.57 3.57 0 0 0 0-2.666 3.44 3.44 0 0 0-.777-1.167 3.44 3.44 0 0 0-1.167-.776 3.57 3.57 0 0 0-2.666 0 3.44 3.44 0 0 0-1.167.776 3.417 3.417 0 0 0-.923 1.616 3.556 3.556 0 0 0 .005 1.802l-4.707 4.707zm9.639-5.361c-.241.24-.537.361-.889.361-.351 0-.648-.12-.888-.361a1.208 1.208 0 0 1-.362-.889c0-.351.12-.648.362-.888.24-.241.537-.362.888-.362.352 0 .648.12.889.362.24.24.361.537.361.888 0 .352-.12.648-.361.889zM7.469 9.094L3.563 13l-.157-.469 3.75-3.75.313.313z"/>
</svg>
