<svg xmlns="http://www.w3.org/2000/svg" width="184" height="103" viewBox="0 0 184 103">
    <g fill="#FFF" fill-rule="evenodd">
        <path d="M2.552 101.404C1.522 100.341 1 99.034 1 97.5c0-1.535.522-2.841 1.552-3.905C3.582 92.532 4.895 92 6.477 92c1.926 0 3.642 1.018 4.523 2.613l-.925.547c-.657-1.291-2.045-2.127-3.598-2.127-1.298 0-2.373.425-3.193 1.291-.821.866-1.24 1.915-1.24 3.176 0 1.261.419 2.31 1.24 3.175.82.867 1.895 1.292 3.193 1.292 1.553 0 2.94-.836 3.598-2.128l.925.533C10.15 101.967 8.403 103 6.477 103c-1.582 0-2.895-.532-3.925-1.596M17.024 101.963H22V103h-6V92h5.927v1.037h-4.903v3.897h4.537v1.037h-4.537zM31.5 101.967c1.261 0 2.31-.425 3.16-1.291.85-.867 1.277-1.93 1.277-3.176 0-1.246-.426-2.294-1.277-3.16-.85-.866-1.899-1.307-3.16-1.307-1.261 0-2.31.44-3.16 1.306-.851.867-1.277 1.915-1.277 3.161s.426 2.31 1.277 3.176c.85.866 1.899 1.29 3.16 1.29m0 1.034c-1.535 0-2.841-.532-3.905-1.596C26.532 100.326 26 99.034 26 97.5c0-1.535.532-2.826 1.595-3.89C28.66 92.533 29.965 92 31.5 92c1.535 0 2.841.532 3.905 1.61C36.468 94.675 37 95.966 37 97.5c0 1.535-.532 2.826-1.595 3.904C34.34 102.468 33.035 103 31.5 103M49.552 101.404C48.522 100.341 48 99.034 48 97.5c0-1.535.522-2.841 1.552-3.905C50.582 92.532 51.895 92 53.477 92c1.926 0 3.642 1.018 4.523 2.613l-.925.547c-.657-1.291-2.045-2.127-3.598-2.127-1.298 0-2.373.425-3.193 1.291-.821.866-1.24 1.915-1.24 3.176 0 1.261.419 2.31 1.24 3.175.82.867 1.895 1.292 3.193 1.292 1.553 0 2.94-.836 3.598-2.128l.925.533c-.85 1.595-2.597 2.628-4.523 2.628-1.582 0-2.895-.532-3.925-1.596M64.077 101.963H69V103h-6V92h1.077zM73 92h1.077v7.138c0 1.73 1.077 2.811 2.923 2.811s2.923-1.081 2.923-2.811V92H81v7.138c0 1.174-.369 2.116-1.107 2.811-.74.696-1.708 1.051-2.893 1.051-1.185 0-2.154-.355-2.892-1.05-.739-.696-1.108-1.638-1.108-2.812V92zM90.27 101.963c.49 0 .896-.189 1.232-.582.35-.393.518-.88.518-1.445 0-.55-.168-1.037-.518-1.43-.336-.393-.742-.597-1.232-.597h-3.29v4.054h3.29zm-3.29-8.926v3.835h2.968c.462 0 .84-.189 1.162-.55.322-.378.49-.833.49-1.367a2.03 2.03 0 0 0-.49-1.352c-.322-.377-.7-.566-1.162-.566H86.98zM93 99.936c0 .848-.266 1.571-.798 2.168-.532.598-1.176.896-1.932.896H86V92h3.948c.728 0 1.344.299 1.862.88s.77 1.273.77 2.075c0 1.02-.378 1.806-1.148 2.34.952.456 1.568 1.447 1.568 2.64zM106 92h1.077v7.138c0 1.73 1.077 2.811 2.923 2.811s2.923-1.081 2.923-2.811V92H114v7.138c0 1.174-.37 2.116-1.108 2.811-.738.696-1.708 1.051-2.892 1.051s-2.154-.355-2.892-1.05c-.739-.696-1.108-1.638-1.108-2.812V92zM127 103h-1.314L121 97.673V103h-1V92h1v5.029L125.543 92h1.314l-4.8 5.343zM132.098 93.037v4.526h3.294c.612 0 1.13-.22 1.553-.66.423-.456.643-.99.643-1.603 0-.628-.22-1.163-.643-1.603-.424-.44-.941-.66-1.553-.66h-3.294zm5.647 9.963l-2.573-4.4h-3.074v4.4H131V92h4.392c.91 0 1.679.33 2.322.974.643.645.972 1.414.972 2.326 0 .738-.22 1.415-.675 1.996a3.195 3.195 0 0 1-1.694 1.163L139 103h-1.255zM144.42 99.26h4.16l-2.08-5.893-2.08 5.893zm5.488 3.74l-.959-2.703h-4.898l-.96 2.703H142l3.969-11h1.062L151 103h-1.092zM157 103h1V92h-1zM169.923 92H171v11h-.923l-6-8.957V103H163V92h.923l6 8.957zM178.024 101.963H183V103h-6V92h5.927v1.037h-4.903v3.897h4.537v1.037h-4.537zM70.183 35c0-11.723 9.563-21.262 21.317-21.262a21.238 21.238 0 0 1 14.011 5.266L70.586 39.107A21.223 21.223 0 0 1 70.183 35m77.726-35a34.928 34.928 0 0 0-17.73 4.814l-.004-.006-12.344 7.105C111.397 4.618 101.984 0 91.501 0 72.15 0 56.407 15.7 56.407 35c0 3.917.659 7.681 1.854 11.2l-12.321 7.093-.003-.005a21.2 21.2 0 0 1-10.846 2.974c-11.755 0-21.318-9.539-21.318-21.262s9.563-21.262 21.318-21.262a21.25 21.25 0 0 1 13.944 5.201 45.263 45.263 0 0 1 6.902-12.074A34.965 34.965 0 0 0 35.092 0C15.742 0 0 15.7 0 35s15.742 35 35.092 35a34.923 34.923 0 0 0 17.73-4.814l.004.006 12.336-7.1C71.598 65.385 81.016 70 91.5 70c19.35 0 35.092-15.7 35.092-35 0-1.54-.111-3.055-.305-4.543l-13.738 7.908c-1.623 10.13-10.442 17.897-21.049 17.897a21.255 21.255 0 0 1-14.016-5.263l59.576-34.292.003.005a21.2 21.2 0 0 1 10.846-2.974c11.754 0 21.317 9.539 21.317 21.262s-9.563 21.262-21.317 21.262a21.25 21.25 0 0 1-13.945-5.201 45.287 45.287 0 0 1-6.9 12.074A34.957 34.957 0 0 0 147.908 70C167.259 70 183 54.3 183 35S167.258 0 147.909 0"/>
    </g>
</svg>
