<svg xmlns="http://www.w3.org/2000/svg" width="120" height="120" viewBox="0 0 120 120">
    <g fill="#C0A266" fill-rule="nonzero">
        <path d="M60.5 81C71.822 81 81 71.822 81 60.5S71.822 40 60.5 40 40 49.178 40 60.5 49.178 81 60.5 81zm0 3C47.521 84 37 73.479 37 60.5S47.521 37 60.5 37 84 47.521 84 60.5 73.479 84 60.5 84z"/>
        <path d="M60.508 58.386l6.198-6.198 2.121 2.122-6.198 6.198 6.198 6.198-2.121 2.121-6.198-6.198-6.198 6.198-2.122-2.121 6.198-6.198-6.198-6.198 2.122-2.122 6.198 6.198z"/>
    </g>
</svg>
