<svg xmlns="http://www.w3.org/2000/svg" width="120" height="120" viewBox="0 0 120 120">
    <g fill="none" fill-rule="evenodd">
        <path fill="#C0A266" d="M44.737 75.2c2.077 11.711 4.626 26.926 13.193 38.375h-5.909L39.72 100.513l4.29-4.3c.657-.646.288-1.977-.608-2.19l-9.065-2.272 3.966-13.63a230.703 230.703 0 0 0 6.435-2.92zM76.991 75.443c1.66.43 3.122 1.205 4.614 1.867l4.452 14.44-9.025 2.272c-.896.214-1.265 1.545-.607 2.19l4.29 4.3-12.303 13.063H63.11c8.572-11.364 11.745-26.41 13.881-38.132z"/>
        <path fill="#26282B" fill-rule="nonzero" d="M57.768 4.576c-3.456.442-6.15 2.132-7.649 5.193-5.676-.96-10.722.792-13.557 5.03-2.634 3.938-3.355 9.696-1.74 16.875-2.783.581-2.838 3.195-2.833 5.436 1.037 3.448 2.793 6.586 5.625 7.505 1.272 4.3 3.06 8.739 5.302 12.737 1.554 2.774 3.34 5.37 5.342 7.505-.065 2.095-.368 3.658-.85 4.746-.54 1.216-1.244 1.901-2.307 2.434-9.137 5.03-19.49 8.597-26.75 13.265-2.608 1.776-5.628 5.69-5.707 11.236-.933 5.956-1.77 12.104-2.63 18.133-.118.743.544 1.51 1.295 1.5h98.423c.737-.014 1.37-.77 1.254-1.5-.871-6.044-1.697-12.094-2.59-18.134-.068-5.506-2.701-9.735-5.868-11.317-9.133-5.294-18.213-9.18-26.467-13.184-1.283-.671-2.249-2.284-2.881-3.906-.645-1.653-.944-3.317-.883-4.004 1.79-1.961 3.396-4.246 4.816-6.693 2.316-3.994 4.1-8.44 5.261-12.778 3.021-1.158 4.735-4.712 5.342-7.545.021-2.595-.186-4.791-2.711-5.437 1.397-5.053.75-10.92-1.862-15.942-3.196-6.143-9.428-10.986-18.171-11.033-2.504-.238-5.075-.308-7.204-.121zm7.082 2.718c7.877 0 13.145 4.193 15.986 9.655 2.61 5.02 3.003 11.094 1.174 15.698-.418-1.292-1.104-2.342-2.024-3.164-1.625-1.45-3.752-2.178-6.232-2.84-4.96-1.322-11.492-2.428-19.021-7.22-.503-.382-.85-.076-1.295-.04-4.488 1.52-9.68 2.425-13.193 5.314-1.758 2.136-2.17 5.221-2.59 7.707-1.893-7.316-1.178-12.81 1.052-16.145 2.399-3.586 6.511-5.061 11.857-3.853a1.333 1.333 0 0 0 1.417-.69c1.367-2.958 3.325-4.171 6.151-4.543 2.329-.013 4.648-.057 6.718.12v.001zM53.883 21.898c7.717 4.76 14.544 6.024 19.183 7.26 2.376.635 4.12 1.285 5.18 2.232 1.06.947 1.646 2.215 1.66 4.706-.002.653.563 1.257 1.213 1.298-.606 5.798-2.835 12.883-6.232 18.74-3.999 6.896-9.441 11.886-15.136 11.886-5.57 0-10.73-5.003-14.61-11.926-3.275-5.844-5.552-12.89-6.556-18.7.637-.06 1.177-.657 1.174-1.298.456-3.324.965-6.943 2.145-9.412 3.659-2.855 7.977-3.217 11.979-4.786zm16.471 44.134c.12 1.818.445 3.346 1.012 4.625.567 1.278 1.4 2.325 2.428 3.083-5.14 9.316-21.286 9.316-26.427 0 1.028-.758 1.862-1.805 2.429-3.083.448-1.012.76-2.19.93-3.53 2.688 2.156 5.703 3.49 9.025 3.49 3.927 0 7.483-1.782 10.603-4.585zM44.737 75.2c2.077 11.711 4.626 26.926 13.193 38.375h-5.909L39.72 100.513l4.29-4.3c.657-.646.288-1.977-.608-2.19l-9.065-2.272 3.966-13.63a230.704 230.704 0 0 0 6.435-2.92zm32.254.243c1.66.43 3.122 1.205 4.614 1.867l4.452 14.44-9.025 2.272c-.896.214-1.265 1.545-.607 2.19l4.29 4.3-12.303 13.063H63.11c8.572-11.364 11.745-26.41 13.881-38.132zm-3.035 2.272c-2.192 11.425-5.6 25.084-13.436 35.048-7.586-9.702-10.486-22.948-12.546-34.237 6.915 6.627 19.526 6.354 25.982-.81zm10.846 1.095c5.737 2.618 10.831 5.802 16.593 8.722 1.972.986 4.452 4.464 4.452 9.208.75 5.598 1.585 11.229 2.387 16.835h-36.22l11.453-12.21c.462-.49.443-1.357-.04-1.826l-3.562-3.57 8.134-2.028c.675-.168 1.125-.954.931-1.623L84.802 78.81zm-49.657.771l-3.642 12.737c-.194.67.256 1.455.93 1.623l8.135 2.028-3.561 3.57c-.484.47-.503 1.335-.04 1.826l11.453 12.21H12.766c.82-5.605 1.577-11.25 2.428-16.835 0-4.694 2.674-7.968 4.613-9.29 5.266-3.021 10.805-5.738 15.338-7.869z"/>
    </g>
</svg>
