<svg xmlns="http://www.w3.org/2000/svg" width="72" height="56" viewBox="0 0 72 56">
    <path fill="#C0A266" fill-rule="evenodd" d="M17.514 52c-6.176 0-10.693-2.459-13.366-6.557C1.475 41.618 0 35.7 0 29.87 0 17.485 6.268 6.193 19.818 0l1.66 3.37C14.38 6.466 8.388 13.296 7.282 19.853c-.369 1.548-.553 2.914-.553 4.28 0 1.184.092 2.277.369 3.46 2.673-2.822 6.544-4.462 11.061-4.462 8.665 0 14.841 5.282 14.841 14.39C33 46.17 26.455 52 17.514 52zm38 0c-6.176 0-10.693-2.459-13.458-6.557C39.475 41.618 38 35.7 38 29.87 38 17.485 44.268 6.193 57.726 0l1.752 3.37c-7.098 3.096-13.09 9.926-14.288 16.483-.369 1.457-.46 2.823-.46 4.189 0 1.184.091 2.368.368 3.552 2.673-2.823 6.544-4.463 11.061-4.463 8.665 0 14.841 5.282 14.841 14.39C71 46.17 64.455 52 55.514 52z"/>
</svg>
