<svg xmlns="http://www.w3.org/2000/svg" width="120" height="120" viewBox="0 0 120 120">
    <g fill="none" fill-rule="evenodd">
        <path fill="#26282B" fill-rule="nonzero" d="M12 32a2 2 0 0 0-2 2v69a2 2 0 0 0 2 2h97a2 2 0 0 0 2-2V34a2 2 0 0 0-2-2H12zm0-3h97a5 5 0 0 1 5 5v69a5 5 0 0 1-5 5H12a5 5 0 0 1-5-5V34a5 5 0 0 1 5-5z"/>
        <path fill="#26282B" fill-rule="nonzero" d="M60.554 84.634l49.354-25.147A2 2 0 0 0 111 57.705V34a2 2 0 0 0-2-2H12a2 2 0 0 0-2 2v23.702a2 2 0 0 0 1.094 1.783l49.46 25.149zM12 29h97a5 5 0 0 1 5 5v23.705a5 5 0 0 1-2.73 4.455L60.556 88 9.734 62.16A5 5 0 0 1 7 57.701V34a5 5 0 0 1 5-5z"/>
        <path fill="#26282B" fill-rule="nonzero" d="M33 30V19a2 2 0 0 1 2-2h51a2 2 0 0 1 2 2v11h3V19a5 5 0 0 0-5-5H35a5 5 0 0 0-5 5v11h3z"/>
        <path fill="#26282B" fill-rule="nonzero" d="M40.625 30v-6h39.75v6h3v-6a3 3 0 0 0-3-3h-39.75a3 3 0 0 0-3 3v6h3zM59.864 66.698l-10.587 4.486.994-11.456-7.538-8.682 11.202-2.595 5.929-9.851 5.929 9.851 11.201 2.595-7.537 8.682.994 11.456z"/>
        <path fill="#C0A266" d="M59.864 63.44l7.167 3.037-.673-7.755 5.103-5.879-7.584-1.756-4.013-6.67-4.014 6.67-7.583 1.756 5.102 5.879-.673 7.755z"/>
    </g>
</svg>
