<svg xmlns="http://www.w3.org/2000/svg" width="120" height="120" viewBox="0 0 120 120">
    <g fill="none" fill-rule="evenodd">
        <path fill="#C0A266" d="M63.44 85.912c0-1.053-.822-1.912-1.83-1.912-1.011 0-1.833.86-1.833 1.912v22.38c0 1.055.822 1.915 1.832 1.915 1.009 0 1.83-.86 1.83-1.914v-22.38z"/>
        <path fill="#26282B" fill-rule="nonzero" d="M106.264 91.65a4.6 4.6 0 0 1 .717 2.918 4.6 4.6 0 0 1-1.928 3.346 4.338 4.338 0 0 1-.575.353 4.6 4.6 0 0 1 .827 2.638 4.605 4.605 0 0 1-1.36 3.28 4.62 4.62 0 0 1-3.286 1.358 4.3 4.3 0 0 1 .56 2.156c0 2.555-2.083 4.636-4.646 4.636H86.8a1.14 1.14 0 0 1-.276.034H69.092a5.621 5.621 0 0 1-3.996-1.652 4.314 4.314 0 0 1-7.74-1.779H41.123a1.24 1.24 0 0 1 0-2.48h16.16V88.593H41.09a1.241 1.241 0 1 1 0-2.481h16.259a4.319 4.319 0 0 1 4.254-3.596c.743 0 1.444.19 2.055.522l12.998-12.975a4.62 4.62 0 0 1 3.285-1.358c1.24 0 2.409.482 3.287 1.358a4.602 4.602 0 0 1 1.36 3.278c0 1.24-.483 2.405-1.352 3.271l-3.761 3.82a1.31 1.31 0 0 0 .869 2.285h7.928l7.821.001 7.647-.001.21.001.555-.001c.586 0 1.162.11 1.702.324a4.608 4.608 0 0 1 2.944 4.313 4.607 4.607 0 0 1-.645 2.363c-.585.938-1.352 1.572-2.242 1.933zM63.44 86.823a1.832 1.832 0 0 0-3.663 0v21.37a1.832 1.832 0 0 0 3.663 0v-21.37zm41.859-1.48a2.152 2.152 0 0 0-.784-.149l-.56.002H80.35a3.799 3.799 0 0 1-3.788-3.799c0-1.01.413-1.986 1.133-2.692l3.779-3.841c.41-.408.634-.947.634-1.525 0-.574-.225-1.114-.634-1.522a2.148 2.148 0 0 0-1.528-.633c-.576 0-1.118.225-1.527.632l-13.004 12.98a4.27 4.27 0 0 1 .51 2.027v19.894c.002.852.331 1.648.93 2.244a3.147 3.147 0 0 0 2.24.927h5.03c.09-.02.182-.031.275-.031h22.177c1.19 0 2.16-.968 2.16-2.156a2.152 2.152 0 0 0-2.16-2.156l-12.334-.002h-1.756a1.241 1.241 0 1 1 0-2.48h1.756l16.419.002c.576 0 1.119-.226 1.528-.633.409-.406.632-.948.632-1.524 0-.576-.225-1.117-.632-1.525a2.129 2.129 0 0 0-1.17-.599H84.178c-.096 0-.187-.013-.276-.031h-.551a1.241 1.241 0 0 1 0-2.48l17.31-.001c.181 0 .358.014.536.034l1.156-.003c.41 0 .804-.112 1.145-.327.091-.06.098-.068.107-.073a2.136 2.136 0 0 0 .91-1.756 2.16 2.16 0 0 0-2.155-2.155h-2.327c-.017.001-2.424 0-7.221-.002h-.139l-8.677.002a1.244 1.244 0 0 1-1.243-1.24c0-.686.558-1.24 1.243-1.24h2.324l6.356-.002h7.354l1.22.002h1.104l2.157-.002c.76 0 1.449-.387 1.845-1.034.215-.361.319-.737.319-1.12a2.158 2.158 0 0 0-1.376-2.013z"/>
        <g>
            <path fill="#C0A266" d="M38.088 65.44c1.053 0 1.912-.822 1.912-1.83 0-1.011-.86-1.833-1.912-1.833h-22.38c-1.055 0-1.915.822-1.915 1.832 0 1.009.86 1.83 1.914 1.83h22.38z"/>
            <path fill="#26282B" fill-rule="nonzero" d="M32.35 108.264a4.6 4.6 0 0 1-2.918.717 4.6 4.6 0 0 1-3.346-1.928 4.338 4.338 0 0 1-.353-.575 4.6 4.6 0 0 1-2.638.827 4.605 4.605 0 0 1-3.28-1.36 4.62 4.62 0 0 1-1.358-3.286 4.3 4.3 0 0 1-2.156.56c-2.555 0-4.636-2.083-4.636-4.646V88.8a1.14 1.14 0 0 1-.034-.276V71.092c0-1.508.586-2.929 1.652-3.996a4.314 4.314 0 0 1 1.779-7.74V43.123a1.24 1.24 0 0 1 2.48 0v16.16h17.866V43.09a1.241 1.241 0 1 1 2.481 0v16.259a4.319 4.319 0 0 1 3.596 4.254c0 .743-.19 1.444-.522 2.055l12.975 12.998a4.62 4.62 0 0 1 1.358 3.285c0 1.24-.482 2.409-1.358 3.287a4.602 4.602 0 0 1-3.278 1.36 4.594 4.594 0 0 1-3.271-1.352l-3.82-3.761a1.31 1.31 0 0 0-2.285.869v7.928l-.001 7.821.001 7.647-.001.21.001.555c0 .586-.11 1.162-.324 1.702a4.608 4.608 0 0 1-4.313 2.944 4.607 4.607 0 0 1-2.363-.645c-.938-.585-1.572-1.352-1.933-2.242zm4.826-42.824a1.832 1.832 0 0 0 0-3.663h-21.37a1.832 1.832 0 0 0 0 3.663h21.37zm1.48 41.859c.098-.25.149-.517.149-.784l-.002-.56V82.35a3.799 3.799 0 0 1 3.799-3.788c1.01 0 1.986.413 2.692 1.133l3.841 3.779c.408.41.947.634 1.525.634.574 0 1.114-.225 1.522-.634.408-.409.633-.951.633-1.528 0-.576-.225-1.118-.632-1.527l-12.98-13.004a4.27 4.27 0 0 1-2.027.51H17.282a3.148 3.148 0 0 0-2.244.93 3.147 3.147 0 0 0-.927 2.24v5.03c.02.09.031.182.031.275v22.177c0 1.19.968 2.16 2.156 2.16a2.152 2.152 0 0 0 2.156-2.16l.002-12.334v-1.756a1.241 1.241 0 1 1 2.48 0v1.756l-.002 16.419c0 .576.226 1.119.633 1.528.406.409.948.632 1.524.632.576 0 1.117-.225 1.525-.632.322-.322.527-.73.599-1.17V86.178c0-.096.013-.187.031-.276v-.551a1.241 1.241 0 0 1 2.48 0l.001 17.31c0 .181-.014.358-.034.536l.003 1.156c0 .41.112.804.327 1.145.06.091.068.098.073.107a2.136 2.136 0 0 0 1.756.91 2.16 2.16 0 0 0 2.155-2.155v-2.327c-.001-.017 0-2.424.002-7.221v-.139l-.002-8.677c0-.685.556-1.243 1.24-1.243.686 0 1.24.558 1.24 1.243v2.324l.002 6.356v7.354l-.002 1.22v1.104l.002 2.157c0 .76.387 1.449 1.034 1.845.361.215.737.319 1.12.319a2.158 2.158 0 0 0 2.013-1.376z"/>
        </g>
        <g>
            <path fill="#C0A266" d="M57.56 40.088c0 1.053.822 1.912 1.83 1.912 1.011 0 1.833-.86 1.833-1.912v-22.38c0-1.055-.822-1.915-1.832-1.915-1.009 0-1.83.86-1.83 1.914v22.38z"/>
            <path fill="#26282B" fill-rule="nonzero" d="M14.736 34.35a4.6 4.6 0 0 1-.717-2.918 4.6 4.6 0 0 1 1.928-3.346 4.338 4.338 0 0 1 .575-.353 4.6 4.6 0 0 1-.827-2.638c0-1.238.482-2.404 1.36-3.28a4.62 4.62 0 0 1 3.286-1.358 4.3 4.3 0 0 1-.56-2.156c0-2.555 2.083-4.636 4.646-4.636H34.2a1.14 1.14 0 0 1 .276-.034h17.433c1.508 0 2.929.586 3.996 1.652a4.314 4.314 0 0 1 7.74 1.779h16.232a1.24 1.24 0 0 1 0 2.48h-16.16v17.866H79.91a1.241 1.241 0 1 1 0 2.481H63.651a4.319 4.319 0 0 1-4.254 3.596c-.743 0-1.444-.19-2.055-.522L44.344 55.938a4.62 4.62 0 0 1-3.285 1.358 4.623 4.623 0 0 1-3.287-1.358 4.602 4.602 0 0 1-1.36-3.278c0-1.24.483-2.405 1.352-3.271l3.761-3.82a1.31 1.31 0 0 0-.869-2.285h-7.928l-7.821-.001-7.647.001-.21-.001-.555.001c-.586 0-1.162-.11-1.702-.324a4.608 4.608 0 0 1-2.944-4.313 4.607 4.607 0 0 1 .645-2.363c.585-.938 1.352-1.572 2.242-1.933zm42.824 4.826a1.832 1.832 0 0 0 3.663 0v-21.37a1.832 1.832 0 0 0-3.663 0v21.37zm-41.859 1.48c.25.098.517.149.784.149l.56-.002H40.65a3.799 3.799 0 0 1 3.788 3.799c0 1.01-.413 1.986-1.133 2.692l-3.779 3.841a2.136 2.136 0 0 0-.634 1.525c0 .574.225 1.114.634 1.522.409.408.951.633 1.528.633.576 0 1.118-.225 1.527-.632l13.004-12.98a4.27 4.27 0 0 1-.51-2.027V19.282a3.148 3.148 0 0 0-.93-2.244 3.147 3.147 0 0 0-2.24-.927h-5.03c-.09.02-.182.031-.275.031H24.423c-1.19 0-2.16.968-2.16 2.156a2.152 2.152 0 0 0 2.16 2.156l12.334.002h1.756a1.241 1.241 0 1 1 0 2.48h-1.756l-16.419-.002c-.576 0-1.119.226-1.528.633a2.134 2.134 0 0 0-.632 1.524c0 .576.225 1.117.632 1.525.322.322.73.527 1.17.599h16.842c.096 0 .187.013.276.031h.551a1.241 1.241 0 0 1 0 2.48l-17.31.001c-.181 0-.358-.014-.536-.034l-1.156.003c-.41 0-.804.112-1.145.327-.091.06-.098.068-.107.073a2.136 2.136 0 0 0-.91 1.756 2.16 2.16 0 0 0 2.155 2.155h2.327c.017-.001 2.424 0 7.221.002h.139l8.677-.002c.685 0 1.243.556 1.243 1.24 0 .686-.558 1.24-1.243 1.24H34.68l-6.356.002H20.97l-1.22-.002h-1.104l-2.157.002c-.76 0-1.449.387-1.845 1.034a2.157 2.157 0 0 0-.319 1.12 2.158 2.158 0 0 0 1.376 2.013z"/>
            <g>
                <path fill="#C0A266" d="M82.912 60.56c-1.053 0-1.912.822-1.912 1.83 0 1.011.86 1.833 1.912 1.833h22.38c1.055 0 1.915-.822 1.915-1.832 0-1.009-.86-1.83-1.914-1.83h-22.38z"/>
                <path fill="#26282B" fill-rule="nonzero" d="M88.65 17.736a4.6 4.6 0 0 1 2.918-.717 4.6 4.6 0 0 1 3.346 1.928c.048.064.11.146.167.246.068.107.129.218.186.329a4.6 4.6 0 0 1 2.638-.827c1.238 0 2.404.482 3.28 1.36a4.62 4.62 0 0 1 1.358 3.286 4.3 4.3 0 0 1 2.156-.56c2.555 0 4.636 2.083 4.636 4.646V37.2c.022.09.034.182.034.276v17.433a5.621 5.621 0 0 1-1.652 3.996 4.314 4.314 0 0 1-1.779 7.74v16.232a1.24 1.24 0 0 1-2.48 0v-16.16H85.593V82.91a1.241 1.241 0 1 1-2.481 0V66.651a4.319 4.319 0 0 1-3.596-4.254c0-.743.19-1.444.522-2.055L67.062 47.344a4.62 4.62 0 0 1-1.358-3.285c0-1.24.482-2.409 1.358-3.287a4.602 4.602 0 0 1 3.278-1.36c1.24 0 2.405.483 3.271 1.352l3.82 3.761a1.31 1.31 0 0 0 2.285-.869v-7.928l.001-7.821-.001-7.647.001-.21-.001-.555c0-.586.11-1.162.324-1.702a4.608 4.608 0 0 1 4.313-2.944 4.607 4.607 0 0 1 2.363.645c.938.585 1.572 1.352 1.933 2.242zM83.823 60.56a1.832 1.832 0 0 0 0 3.663h21.37a1.832 1.832 0 0 0 0-3.663h-21.37zm-1.48-41.859c-.098.25-.149.517-.149.784l.002.56V43.65a3.799 3.799 0 0 1-3.799 3.788 3.785 3.785 0 0 1-2.692-1.133l-3.841-3.779a2.136 2.136 0 0 0-1.525-.634c-.574 0-1.114.225-1.522.634a2.148 2.148 0 0 0-.633 1.528c0 .576.225 1.118.632 1.527l12.98 13.004a4.27 4.27 0 0 1 2.027-.51h19.894a3.148 3.148 0 0 0 2.244-.93 3.147 3.147 0 0 0 .927-2.24v-5.03a1.283 1.283 0 0 1-.031-.275V27.423c0-1.19-.968-2.16-2.156-2.16a2.152 2.152 0 0 0-2.156 2.16l-.002 12.334v1.756a1.241 1.241 0 1 1-2.48 0v-1.756l.002-16.419c0-.576-.226-1.119-.633-1.528a2.134 2.134 0 0 0-1.524-.632c-.576 0-1.117.225-1.525.632-.322.322-.527.73-.599 1.17v16.842c0 .096-.013.187-.031.276v.551a1.241 1.241 0 0 1-2.48 0l-.001-17.31c0-.181.014-.358.034-.536l-.003-1.156c0-.41-.112-.804-.327-1.145-.06-.091-.068-.098-.073-.107a2.136 2.136 0 0 0-1.756-.91 2.16 2.16 0 0 0-2.155 2.155v2.327c.001.017 0 2.424-.002 7.221v.139l.002 8.677c0 .685-.556 1.243-1.24 1.243-.686 0-1.24-.558-1.24-1.243V37.68l-.002-6.356V23.97l.002-1.22v-1.104l-.002-2.157c0-.76-.387-1.449-1.034-1.845a2.157 2.157 0 0 0-1.12-.319 2.158 2.158 0 0 0-2.013 1.376z"/>
            </g>
        </g>
    </g>
</svg>
