<svg xmlns="http://www.w3.org/2000/svg" width="120" height="120" viewBox="0 0 120 120">
    <g fill="none" fill-rule="evenodd">
        <path fill="#26282B" fill-rule="nonzero" d="M27.393 69.497l-2.837-.974C30.579 50.98 42.492 42.087 60.03 42.087c17.532 0 29.57 8.884 35.86 26.417l-2.825 1.013c-5.87-16.366-16.797-24.43-33.035-24.43-16.231 0-27.023 8.056-32.638 24.41zM16.492 84.977l4.154 6.977h8.47l4.155-6.977L29.117 78h-8.471l-4.154 6.977zM18.94 75h11.882l5.94 9.977-5.94 9.977H18.94L13 84.977 18.94 75zM53.94 90h11.882l5.94 9.977-5.94 9.977H53.94L48 99.977z"/>
        <path fill="#C0A266" d="M51.492 99.977l4.154 6.977h8.47l4.155-6.977L64.117 93h-8.471z"/>
        <path fill="#26282B" fill-rule="nonzero" d="M87.492 84.977l4.154 6.977h8.47l4.155-6.977L100.117 78h-8.471l-4.154 6.977zM89.94 75h11.882l5.94 9.977-5.94 9.977H89.94L84 84.977 89.94 75zM61.5 42.572h-3V11h3z"/>
        <path fill="#26282B" fill-rule="nonzero" d="M50.661 22.936l-2.136-2.107L59.993 9.203l11.619 11.62-2.122 2.12-9.483-9.482z"/>
    </g>
</svg>
