<svg xmlns="http://www.w3.org/2000/svg" width="120" height="120" viewBox="0 0 120 120">
    <g fill="none" fill-rule="evenodd">
        <path fill="#26282B" fill-rule="nonzero" d="M85.702 13.394c-.198-.108-.46-.194-.604-.194h-50.2c-.14 0-.403.086-.577.177L.723 39.425l-.225.263-.1.33-.198.587.1.342.202.33L59.15 107.32l.352.153c.187.218.24.24.345.297.037.02.229-.007.577-.08.133-.083.242-.17.326-.26l58.702-66.109c.261-.388.348-.676.348-.96-.02-.247-.035-.286-.048-.3-.135-.262-.167-.306-.202-.375-.05-.1-11.333-8.864-33.848-26.292zM35.4 15.755h12.628L35.976 39.14l-.178.108H4.914l30.364-23.451.122-.042zm49.2 0l.122.042 30.362 23.451H84.2l-.178-.108-12.05-23.385H84.6zM32.98 41.694l-10.157 7.91-.212.021-15.963-7.931h26.333zm44.646 0l-17.544 7.934h-.164L42.37 41.694h35.255zm35.726 0l-15.963 7.933-.212-.022-10.16-7.911h26.335zM56.933 101.24L6.372 44.327l.916.452 15.092 7.437c.392.172.816.123 1.197-.084l12.418-9.69 20.938 58.798zm27.29-58.628l12.171 9.504c.41.224.833.273 1.218.106l16.016-7.893-50.561 56.911 20.938-58.799.218.17zm-45.24.304l20.635 9.323c.23.168.534.168.8-.02L81.45 42.72l-.162.445-2.5 6.894L60 103.126 38.554 42.722l.428.194z"/>
        <path fill="#C0A266" d="M50.798 15.755h18.4l.178.108 12.152 23.385H38.47l12.15-23.385z"/>
    </g>
</svg>
